<svg xmlns="http://www.w3.org/2000/svg" width="512" height="512" viewBox="0 0 512 512"><g fill="#1A1A1A" fill-rule="evenodd" clip-rule="evenodd"><path d="M255.989 158.465c-62.928 0-113.933 35.792-113.933 79.923 0 35.666 33.304 65.831 79.269 76.141-2.719 9.932-10.035 33.173-20.209 39.002 0 0 56.043-1.566 84.556-38.052 48.507-9.163 84.266-40.159 84.266-77.091 0-44.131-51.024-79.923-113.949-79.923z"/><path d="M434.478 16H77.521C43.72 16 16 43.718 16 77.519v356.959C16 468.281 43.72 496 77.521 496h356.957C468.281 496 496 468.281 496 434.478V77.519C496 43.718 468.281 16 434.478 16zM307.252 352.358c-39.841 38.931-97.946 41.741-104.983 41.944-.376.015-.77.015-1.148.015-18.228 0-34.292-12.108-39.262-29.737a40.725 40.725 0 0 1 2.401-28.509c-38.993-22.08-62.986-57.785-62.986-97.69 0-67.674 67.956-120.707 154.708-120.707 86.775 0 154.743 53.033 154.743 120.707 0 52.061-41.879 97.426-103.473 113.977z"/></g></svg>